<svg viewBox="0 0 128 128" fill="none" xmlns="http://www.w3.org/2000/svg">
<path d="M54.1217 1.89722C48.7589 4.32566 45.7234 7.4624 43.3961 12.5217C41.676 16.2655 41.4736 19.7058 41.4736 51.5791C41.4736 83.3512 41.676 86.8927 43.3961 90.6365C45.7234 95.797 51.4909 100.553 57.2585 102.172L61.7106 103.487V118.159L53.0087 118.867C36.8191 120.183 31.5575 123.319 39.9558 126.456C45.7234 128.581 82.7571 128.48 88.4235 126.355C96.7207 123.319 92.9768 120.891 77.2931 119.171L66.7699 117.956V103.487L71.1208 102.273C76.8884 100.451 81.5429 96.8088 84.1737 91.7496C85.995 88.2081 86.3998 85.3749 86.8045 74.5481L87.2093 61.6976H77.9002V73.5362C77.9002 83.7559 77.5967 85.982 75.8765 88.8152C70.6149 97.4159 57.0561 96.8088 51.5921 87.7021C49.6696 84.6666 49.5684 82.4405 49.5684 51.7815C49.5684 25.6757 49.872 18.3904 50.985 15.6584C54.83 6.45055 69.1983 5.33751 75.7754 13.7359C77.6979 16.1643 77.9002 17.7833 77.9002 29.0148V41.5618L82.2512 41.2582L86.501 40.9547L86.8045 31.3421C87.0069 26.0804 86.6022 19.4022 85.995 16.5691C84.6796 10.2956 80.0251 4.42685 74.4599 1.89722C68.996 -0.632407 59.4846 -0.632407 54.1217 1.89722Z"/>
<path d="M60.0917 12.1169C58.8774 12.5217 56.9549 14.2418 55.7407 15.7596C53.717 18.2892 53.6158 19.6046 53.6158 35.8954C53.6158 48.7459 53.9194 53.6028 54.9312 54.4123C55.6395 55.0194 58.2703 55.6265 60.6988 55.8289L65.2521 56.1324V68.9829C65.2521 85.0713 63.4308 86.9939 62.7225 71.8161L62.2166 61.1917L57.9668 60.8881L53.6158 60.5846V72.8279C53.6158 85.0713 53.6158 85.1725 56.5502 88.1069C60.6988 92.2555 66.4663 92.2555 71.0197 88.1069L74.3588 85.1725L74.6623 67.5663C74.9659 50.6684 74.9659 50.0613 72.841 48.3412C71.5256 47.3293 68.8948 46.5198 66.6687 46.5198H62.7225V33.2646C62.7225 23.1461 63.026 20.1105 64.0379 20.4141C64.8474 20.7176 65.4545 24.2591 65.758 31.4433L66.264 41.9665H74.3588L74.6623 30.4314C74.9659 17.3785 74.1564 14.9501 68.2877 12.5217C64.3414 10.9027 63.1272 10.9027 60.0917 12.1169Z"/>

<style>
    path { fill: #000; }
    @media (prefers-color-scheme: dark) {
        path { fill: #FFF; }
    }
</style>
</svg>